<svg xmlns="http://www.w3.org/2000/svg" xmlns:xlink="http://www.w3.org/1999/xlink" width="200" zoomAndPan="magnify" viewBox="0 0 150 149.999998" height="200" preserveAspectRatio="xMidYMid meet" version="1.0"><defs><g/><clipPath id="b207409839"><path d="M 0 144.304688 L 9.402344 144.304688 L 9.402344 150 L 0 150 Z M 0 144.304688 " clip-rule="nonzero"/></clipPath></defs><path fill="#de3b38" d="M 30 0 L 90 0 L 135 45 L 135 135 C 135 135.984375 134.902344 136.960938 134.710938 137.925781 C 134.519531 138.890625 134.234375 139.832031 133.859375 140.742188 C 133.480469 141.648438 133.019531 142.515625 132.472656 143.332031 C 131.925781 144.152344 131.304688 144.910156 130.605469 145.605469 C 129.910156 146.304688 129.152344 146.925781 128.332031 147.472656 C 127.515625 148.019531 126.648438 148.480469 125.742188 148.859375 C 124.832031 149.234375 123.890625 149.519531 122.925781 149.710938 C 121.960938 149.902344 120.984375 150 120 150 L 30 150 C 29.015625 150 28.039062 149.902344 27.074219 149.710938 C 26.109375 149.519531 25.167969 149.234375 24.257812 148.859375 C 23.351562 148.480469 22.484375 148.019531 21.667969 147.472656 C 20.847656 146.925781 20.089844 146.304688 19.394531 145.605469 C 18.695312 144.910156 18.074219 144.152344 17.527344 143.332031 C 16.980469 142.515625 16.519531 141.648438 16.140625 140.742188 C 15.765625 139.832031 15.480469 138.890625 15.289062 137.925781 C 15.097656 136.960938 15 135.984375 15 135 L 15 15 C 15 14.015625 15.097656 13.039062 15.289062 12.074219 C 15.480469 11.109375 15.765625 10.167969 16.140625 9.257812 C 16.519531 8.351562 16.980469 7.484375 17.527344 6.667969 C 18.074219 5.847656 18.695312 5.089844 19.394531 4.394531 C 20.089844 3.695312 20.847656 3.074219 21.667969 2.527344 C 22.484375 1.980469 23.351562 1.519531 24.257812 1.140625 C 25.167969 0.765625 26.109375 0.480469 27.074219 0.289062 C 28.039062 0.0976562 29.015625 0 30 0 Z M 30 0 " fill-opacity="1" fill-rule="nonzero"/><g fill="#ffffff" fill-opacity="1"><g transform="translate(30, 108.524996)"><g><path d="M 28.484375 -21.15625 C 28.484375 -19.164062 28.023438 -17.382812 27.109375 -15.8125 C 26.203125 -14.25 24.898438 -13.039062 23.203125 -12.1875 C 21.515625 -11.332031 19.507812 -10.90625 17.1875 -10.90625 L 9.5 -10.90625 L 9.5 0 L 3.015625 0 L 3.015625 -30.953125 L 16.921875 -30.953125 C 20.628906 -30.953125 23.484375 -30.097656 25.484375 -28.390625 C 27.484375 -26.691406 28.484375 -24.28125 28.484375 -21.15625 Z M 21.953125 -21.046875 C 21.953125 -24.296875 20.03125 -25.921875 16.1875 -25.921875 L 9.5 -25.921875 L 9.5 -15.890625 L 16.375 -15.890625 C 18.15625 -15.890625 19.53125 -16.332031 20.5 -17.21875 C 21.46875 -18.101562 21.953125 -19.378906 21.953125 -21.046875 Z M 21.953125 -21.046875 "/></g></g><g transform="translate(60.014646, 108.524996)"><g><path d="M 30.609375 -15.703125 C 30.609375 -12.515625 29.976562 -9.726562 28.71875 -7.34375 C 27.46875 -4.96875 25.695312 -3.148438 23.40625 -1.890625 C 21.113281 -0.628906 18.488281 0 15.53125 0 L 3.015625 0 L 3.015625 -30.953125 L 14.21875 -30.953125 C 19.425781 -30.953125 23.457031 -29.640625 26.3125 -27.015625 C 29.175781 -24.390625 30.609375 -20.617188 30.609375 -15.703125 Z M 24.078125 -15.703125 C 24.078125 -19.035156 23.210938 -21.578125 21.484375 -23.328125 C 19.753906 -25.078125 17.285156 -25.953125 14.078125 -25.953125 L 9.5 -25.953125 L 9.5 -5.015625 L 14.984375 -5.015625 C 17.765625 -5.015625 19.972656 -5.972656 21.609375 -7.890625 C 23.253906 -9.804688 24.078125 -12.410156 24.078125 -15.703125 Z M 24.078125 -15.703125 "/></g></g><g transform="translate(92.512203, 108.524996)"><g><path d="M 9.5 -25.953125 L 9.5 -16.375 L 25.328125 -16.375 L 25.328125 -11.359375 L 9.5 -11.359375 L 9.5 0 L 3.015625 0 L 3.015625 -30.953125 L 25.84375 -30.953125 L 25.84375 -25.953125 Z M 9.5 -25.953125 "/></g></g></g><path fill="#d13532" d="M 135 67.199219 L 96.148438 42.148438 L 115.574219 26.476562 L 135 45 Z M 135 67.199219 " fill-opacity="1" fill-rule="nonzero"/><path fill="#d56c6f" d="M 90 0 L 90 30 C 90 30.984375 90.097656 31.960938 90.289062 32.925781 C 90.480469 33.890625 90.765625 34.832031 91.140625 35.742188 C 91.519531 36.648438 91.980469 37.515625 92.527344 38.332031 C 93.074219 39.152344 93.695312 39.910156 94.394531 40.605469 C 95.089844 41.304688 95.847656 41.925781 96.667969 42.472656 C 97.484375 43.019531 98.351562 43.480469 99.257812 43.859375 C 100.167969 44.234375 101.109375 44.519531 102.074219 44.710938 C 103.039062 44.902344 104.015625 45 105 45 L 135 45 Z M 90 0 " fill-opacity="1" fill-rule="nonzero"/><g clip-path="url(#b207409839)"><path fill="#de3b38" d="M -95.597656 144.304688 L -35.597656 144.304688 L 9.402344 189.304688 L 9.402344 279.304688 C 9.402344 280.289062 9.308594 281.265625 9.117188 282.230469 C 8.921875 283.195312 8.636719 284.132812 8.261719 285.042969 C 7.886719 285.953125 7.421875 286.820312 6.875 287.636719 C 6.328125 288.457031 5.707031 289.214844 5.011719 289.910156 C 4.3125 290.605469 3.554688 291.230469 2.738281 291.777344 C 1.917969 292.324219 1.054688 292.785156 0.144531 293.164062 C -0.765625 293.539062 -1.703125 293.824219 -2.671875 294.015625 C -3.636719 294.207031 -4.613281 294.304688 -5.597656 294.304688 L -95.597656 294.304688 C -96.582031 294.304688 -97.558594 294.207031 -98.523438 294.015625 C -99.488281 293.824219 -100.425781 293.539062 -101.335938 293.164062 C -102.246094 292.785156 -103.109375 292.324219 -103.929688 291.777344 C -104.75 291.230469 -105.507812 290.605469 -106.203125 289.910156 C -106.898438 289.214844 -107.519531 288.457031 -108.070312 287.636719 C -108.617188 286.820312 -109.078125 285.953125 -109.453125 285.042969 C -109.832031 284.132812 -110.117188 283.195312 -110.308594 282.230469 C -110.5 281.265625 -110.597656 280.289062 -110.597656 279.304688 L -110.597656 159.304688 C -110.597656 158.320312 -110.5 157.34375 -110.308594 156.378906 C -110.117188 155.410156 -109.832031 154.472656 -109.453125 153.5625 C -109.078125 152.652344 -108.617188 151.789062 -108.070312 150.972656 C -107.519531 150.152344 -106.898438 149.394531 -106.203125 148.699219 C -105.507812 148 -104.75 147.378906 -103.929688 146.832031 C -103.109375 146.285156 -102.246094 145.824219 -101.335938 145.445312 C -100.425781 145.070312 -99.488281 144.785156 -98.523438 144.59375 C -97.558594 144.398438 -96.582031 144.304688 -95.597656 144.304688 Z M -95.597656 144.304688 " fill-opacity="1" fill-rule="nonzero"/><path fill="#d56c6f" d="M -35.597656 144.304688 L -35.597656 174.304688 C -35.597656 175.289062 -35.5 176.265625 -35.308594 177.230469 C -35.117188 178.195312 -34.832031 179.132812 -34.453125 180.042969 C -34.078125 180.953125 -33.617188 181.820312 -33.070312 182.636719 C -32.519531 183.457031 -31.898438 184.214844 -31.203125 184.910156 C -30.507812 185.605469 -29.75 186.230469 -28.929688 186.777344 C -28.109375 187.324219 -27.246094 187.785156 -26.335938 188.164062 C -25.425781 188.539062 -24.488281 188.824219 -23.523438 189.015625 C -22.558594 189.207031 -21.582031 189.304688 -20.597656 189.304688 L 9.402344 189.304688 Z M -35.597656 144.304688 " fill-opacity="1" fill-rule="nonzero"/></g></svg>