<svg xmlns="http://www.w3.org/2000/svg" xmlns:xlink="http://www.w3.org/1999/xlink" width="303" zoomAndPan="magnify" viewBox="0 0 227.25 175.499993" height="234" preserveAspectRatio="xMidYMid meet" version="1.0"><defs><clipPath id="4f454c1056"><path d="M 0 0.0390625 L 226.503906 0.0390625 L 226.503906 174.214844 L 0 174.214844 Z M 0 0.0390625 " clip-rule="nonzero"/></clipPath><clipPath id="25a482eaf9"><path d="M 156.746094 31.226562 L 167.796875 31.226562 L 167.796875 108.152344 L 156.746094 108.152344 Z M 156.746094 31.226562 " clip-rule="nonzero"/></clipPath></defs><g clip-path="url(#4f454c1056)"><path fill="#55d976" d="M 62.253906 72.574219 C 57.804688 75.128906 56.25 79.464844 55.730469 84.46875 L 30.828125 70.089844 L 20.601562 75.984375 L 20.601562 82.28125 L 55.472656 102.402344 L 55.472656 135.382812 C 55.472656 142.199219 60.734375 146.128906 66.734375 149.683594 L 106.53125 172.660156 C 112.425781 176.03125 118.464844 173.4375 124.542969 170.027344 L 164.339844 147.054688 C 170.15625 143.644531 170.933594 137.125 171.007812 130.15625 L 171.007812 102.402344 L 216.511719 76.132812 C 228.257812 69.351562 231.296875 66.570312 216.511719 58.046875 L 123.726562 4.503906 C 113.757812 -1.277344 112.054688 -0.867188 101.828125 5.023438 L 9.96875 58.046875 C -4.816406 66.570312 -1.742188 69.351562 9.96875 76.132812 L 9.96875 101.105469 C 4.632812 103.253906 3.78125 110.519531 8.523438 113.851562 C 7.894531 114.707031 7.484375 115.78125 7.484375 116.964844 L 7.484375 141.238281 L 17.859375 141.238281 L 17.859375 116.964844 C 17.859375 115.816406 17.488281 114.742188 16.824219 113.851562 C 21.121094 110.851562 21.011719 104.699219 16.527344 101.699219 L 15.378906 101.105469 L 15.378906 72.980469 L 106.125 20.585938 C 114.425781 15.769531 113.277344 16.546875 124.058594 22.773438 L 124.058594 49.378906 L 119.945312 47.007812 C 114.054688 43.632812 108.015625 46.226562 101.9375 49.636719 L 62.214844 72.574219 Z M 170.933594 49.824219 L 194.054688 63.160156 C 199.429688 66.273438 201.46875 66.683594 198.464844 68.425781 L 171.007812 84.285156 L 170.933594 49.785156 Z M 155.332031 67.460938 C 166.96875 74.167969 166.894531 74.796875 155.332031 67.460938 Z M 71.144531 124.375 L 71.144531 95.363281 C 71.183594 87.136719 73.144531 84.46875 80 80.429688 L 104.347656 66.386719 C 111.277344 62.421875 114.574219 62.085938 121.6875 66.164062 L 139.660156 76.539062 L 139.660156 31.851562 L 155.332031 40.890625 L 155.332031 123.96875 C 155.296875 131.9375 153.960938 134.972656 146.847656 139.125 L 121.726562 153.648438 L 113.238281 158.542969 L 104.382812 153.425781 L 80.039062 139.382812 C 73.144531 135.382812 71.183594 132.675781 71.183594 124.449219 Z M 71.144531 124.375 " fill-opacity="1" fill-rule="evenodd"/></g><path fill="#050259" d="M 106.050781 83.429688 L 89.894531 92.769531 C 87.152344 94.363281 86.820312 97.402344 86.78125 100.625 L 86.78125 121.488281 C 86.78125 124.636719 89.265625 126.453125 92.042969 128.121094 L 92.785156 128.5625 L 110.089844 138.570312 L 113.203125 140.347656 L 136.546875 126.859375 C 139.253906 125.304688 139.621094 122.265625 139.660156 119.039062 L 139.660156 94.546875 L 116.316406 81.097656 L 113.203125 79.316406 L 106.015625 83.46875 Z M 106.050781 83.429688 " fill-opacity="1" fill-rule="evenodd"/><g clip-path="url(#25a482eaf9)"><path fill="#55d976" d="M 156.746094 31.226562 L 167.796875 31.226562 L 167.796875 108.148438 L 156.746094 108.148438 Z M 156.746094 31.226562 " fill-opacity="1" fill-rule="nonzero"/></g></svg>