<svg xmlns="http://www.w3.org/2000/svg" xmlns:xlink="http://www.w3.org/1999/xlink" width="435" zoomAndPan="magnify" viewBox="0 0 326.25 100.499997" height="134" preserveAspectRatio="xMidYMid meet" version="1.0"><defs><g/><clipPath id="cb3f5e0ef2"><path d="M 0.433594 0 L 122.078125 0 L 122.078125 94 L 0.433594 94 Z M 0.433594 0 " clip-rule="nonzero"/></clipPath><clipPath id="8b5a309985"><path d="M 84.222656 23.316406 L 90.878906 23.316406 L 90.878906 60.703125 L 84.222656 60.703125 Z M 84.222656 23.316406 " clip-rule="nonzero"/></clipPath></defs><g fill="#55d976" fill-opacity="1"><g transform="translate(97.230242, 71.393608)"><g><path d="M 18.21875 -36.375 L 24.953125 -36.375 L 24.953125 0 L 18.21875 0.046875 L 18.21875 -1.859375 C 17.4375 -1.148438 16.539062 -0.59375 15.53125 -0.1875 C 14.519531 0.21875 13.394531 0.421875 12.15625 0.421875 C 10.207031 0.421875 8.4375 -0.0703125 6.84375 -1.0625 C 5.25 -2.050781 3.984375 -3.378906 3.046875 -5.046875 C 2.109375 -6.710938 1.640625 -8.570312 1.640625 -10.625 C 1.640625 -12.675781 2.109375 -14.53125 3.046875 -16.1875 C 3.984375 -17.851562 5.25 -19.179688 6.84375 -20.171875 C 8.4375 -21.171875 10.207031 -21.671875 12.15625 -21.671875 C 13.394531 -21.671875 14.519531 -21.46875 15.53125 -21.0625 C 16.539062 -20.65625 17.4375 -20.097656 18.21875 -19.390625 Z M 13.484375 -5.578125 C 14.867188 -5.578125 16.054688 -6.0625 17.046875 -7.03125 C 18.035156 -8.007812 18.53125 -9.207031 18.53125 -10.625 C 18.53125 -12.039062 18.035156 -13.234375 17.046875 -14.203125 C 16.054688 -15.179688 14.867188 -15.671875 13.484375 -15.671875 C 12.066406 -15.671875 10.867188 -15.179688 9.890625 -14.203125 C 8.921875 -13.234375 8.4375 -12.039062 8.4375 -10.625 C 8.4375 -9.207031 8.921875 -8.007812 9.890625 -7.03125 C 10.867188 -6.0625 12.066406 -5.578125 13.484375 -5.578125 Z M 13.484375 -5.578125 "/></g></g></g><g fill="#55d976" fill-opacity="1"><g transform="translate(122.983472, 71.393608)"><g><path d="M 24.75 -10.671875 L 24.75 -9.5 L 8.5 -9.5 C 8.632812 -7.976562 9.109375 -6.785156 9.921875 -5.921875 C 10.742188 -5.054688 11.914062 -4.625 13.4375 -4.625 C 15.769531 -4.625 17.253906 -5.523438 17.890625 -7.328125 L 24.421875 -7.328125 C 23.890625 -5.023438 22.675781 -3.15625 20.78125 -1.71875 C 18.894531 -0.289062 16.484375 0.421875 13.546875 0.421875 C 11.171875 0.421875 9.085938 -0.0351562 7.296875 -0.953125 C 5.515625 -1.878906 4.125 -3.171875 3.125 -4.828125 C 2.132812 -6.492188 1.640625 -8.425781 1.640625 -10.625 C 1.640625 -12.851562 2.132812 -14.796875 3.125 -16.453125 C 4.125 -18.117188 5.507812 -19.410156 7.28125 -20.328125 C 9.050781 -21.253906 11.066406 -21.71875 13.328125 -21.71875 C 15.628906 -21.71875 17.628906 -21.253906 19.328125 -20.328125 C 21.023438 -19.410156 22.351562 -18.128906 23.3125 -16.484375 C 24.269531 -14.835938 24.75 -12.898438 24.75 -10.671875 Z M 13.4375 -16.515625 C 12.226562 -16.515625 11.257812 -16.253906 10.53125 -15.734375 C 9.8125 -15.222656 9.273438 -14.507812 8.921875 -13.59375 L 17.734375 -13.59375 C 17.378906 -14.507812 16.859375 -15.222656 16.171875 -15.734375 C 15.484375 -16.253906 14.570312 -16.515625 13.4375 -16.515625 Z M 13.4375 -16.515625 "/></g></g></g><g fill="#55d976" fill-opacity="1"><g transform="translate(146.984392, 71.393608)"><g><path d="M 9.984375 0.421875 C 8.109375 0.421875 6.300781 -0.0195312 4.5625 -0.90625 C 2.832031 -1.789062 1.648438 -3.046875 1.015625 -4.671875 L 6 -7.171875 C 6.5 -6.285156 7.070312 -5.691406 7.71875 -5.390625 C 8.375 -5.085938 8.988281 -4.9375 9.5625 -4.9375 C 10.125 -4.9375 10.570312 -5.050781 10.90625 -5.28125 C 11.25 -5.507812 11.421875 -5.835938 11.421875 -6.265625 C 11.421875 -6.648438 11.234375 -6.992188 10.859375 -7.296875 C 10.484375 -7.597656 9.820312 -7.925781 8.875 -8.28125 C 8.050781 -8.601562 7.117188 -9.003906 6.078125 -9.484375 C 5.035156 -9.960938 4.125 -10.625 3.34375 -11.46875 C 2.5625 -12.320312 2.171875 -13.457031 2.171875 -14.875 C 2.171875 -16.070312 2.5 -17.179688 3.15625 -18.203125 C 3.8125 -19.234375 4.734375 -20.066406 5.921875 -20.703125 C 7.109375 -21.347656 8.5 -21.671875 10.09375 -21.671875 C 11.582031 -21.671875 12.953125 -21.40625 14.203125 -20.875 C 15.460938 -20.34375 16.484375 -19.671875 17.265625 -18.859375 L 13.859375 -15.03125 C 13.535156 -15.414062 13.082031 -15.765625 12.5 -16.078125 C 11.914062 -16.398438 11.269531 -16.5625 10.5625 -16.5625 C 10 -16.5625 9.578125 -16.445312 9.296875 -16.21875 C 9.015625 -15.988281 8.875 -15.695312 8.875 -15.34375 C 8.875 -14.957031 9.054688 -14.648438 9.421875 -14.421875 C 9.796875 -14.191406 10.375 -13.914062 11.15625 -13.59375 C 12.175781 -13.207031 13.179688 -12.726562 14.171875 -12.15625 C 15.171875 -11.59375 16.003906 -10.859375 16.671875 -9.953125 C 17.347656 -9.054688 17.6875 -7.898438 17.6875 -6.484375 C 17.6875 -4.492188 17.003906 -2.84375 15.640625 -1.53125 C 14.273438 -0.226562 12.390625 0.421875 9.984375 0.421875 Z M 9.984375 0.421875 "/></g></g></g><g fill="#ffffff" fill-opacity="1"><g transform="translate(163.346613, 71.393608)"><g><path d="M 24.484375 -10.828125 L 24.421875 -10.140625 L 5.6875 -10.140625 C 5.75 -8.796875 6.132812 -7.566406 6.84375 -6.453125 C 7.550781 -5.335938 8.476562 -4.460938 9.625 -3.828125 C 10.78125 -3.191406 12.050781 -2.875 13.4375 -2.875 C 15.03125 -2.875 16.472656 -3.296875 17.765625 -4.140625 C 19.054688 -4.992188 19.984375 -6.109375 20.546875 -7.484375 L 24.0625 -7.484375 C 23.59375 -5.960938 22.84375 -4.609375 21.8125 -3.421875 C 20.789062 -2.234375 19.5625 -1.296875 18.125 -0.609375 C 16.695312 0.078125 15.132812 0.421875 13.4375 0.421875 C 11.414062 0.421875 9.5625 -0.0703125 7.875 -1.0625 C 6.195312 -2.050781 4.863281 -3.382812 3.875 -5.0625 C 2.882812 -6.75 2.390625 -8.601562 2.390625 -10.625 C 2.390625 -12.675781 2.882812 -14.53125 3.875 -16.1875 C 4.863281 -17.851562 6.195312 -19.179688 7.875 -20.171875 C 9.5625 -21.171875 11.414062 -21.671875 13.4375 -21.671875 C 15.457031 -21.671875 17.289062 -21.191406 18.9375 -20.234375 C 20.582031 -19.273438 21.90625 -17.976562 22.90625 -16.34375 C 23.914062 -14.71875 24.441406 -12.878906 24.484375 -10.828125 Z M 13.4375 -18.375 C 11.738281 -18.375 10.222656 -17.882812 8.890625 -16.90625 C 7.566406 -15.9375 6.640625 -14.671875 6.109375 -13.109375 L 20.71875 -13.109375 C 20.21875 -14.671875 19.300781 -15.9375 17.96875 -16.90625 C 16.644531 -17.882812 15.132812 -18.375 13.4375 -18.375 Z M 13.4375 -18.375 "/></g></g></g><g fill="#ffffff" fill-opacity="1"><g transform="translate(187.666141, 71.393608)"><g><path d="M 24.21875 -21.671875 C 25.707031 -21.671875 27.039062 -21.304688 28.21875 -20.578125 C 29.40625 -19.847656 30.351562 -18.875 31.0625 -17.65625 C 31.769531 -16.4375 32.125 -15.082031 32.125 -13.59375 L 32.125 0 L 28.84375 0 L 28.84375 -13.59375 C 28.84375 -14.9375 28.390625 -16.066406 27.484375 -16.984375 C 26.578125 -17.910156 25.488281 -18.375 24.21875 -18.375 C 22.976562 -18.375 21.90625 -17.910156 21 -16.984375 C 20.101562 -16.066406 19.65625 -14.9375 19.65625 -13.59375 L 19.65625 0 L 16.359375 0 L 16.359375 -13.59375 C 16.359375 -14.9375 15.90625 -16.066406 15 -16.984375 C 14.09375 -17.910156 13.023438 -18.375 11.796875 -18.375 C 10.484375 -18.375 9.382812 -17.910156 8.5 -16.984375 C 7.613281 -16.066406 7.171875 -14.9375 7.171875 -13.59375 L 7.171875 0 L 3.875 0 L 3.875 -21.234375 L 7.171875 -21.234375 L 7.171875 -19.28125 C 7.804688 -19.988281 8.546875 -20.5625 9.390625 -21 C 10.242188 -21.445312 11.148438 -21.671875 12.109375 -21.671875 C 13.242188 -21.671875 14.332031 -21.382812 15.375 -20.8125 C 16.414062 -20.25 17.289062 -19.472656 18 -18.484375 C 18.707031 -19.472656 19.597656 -20.25 20.671875 -20.8125 C 21.753906 -21.382812 22.9375 -21.671875 24.21875 -21.671875 Z M 24.21875 -21.671875 "/></g></g></g><g fill="#ffffff" fill-opacity="1"><g transform="translate(221.012696, 71.393608)"><g><path d="M 14.921875 -21.671875 C 16.972656 -21.671875 18.832031 -21.171875 20.5 -20.171875 C 22.164062 -19.179688 23.492188 -17.851562 24.484375 -16.1875 C 25.472656 -14.53125 25.96875 -12.675781 25.96875 -10.625 C 25.96875 -8.601562 25.472656 -6.75 24.484375 -5.0625 C 23.492188 -3.382812 22.164062 -2.050781 20.5 -1.0625 C 18.832031 -0.0703125 16.972656 0.421875 14.921875 0.421875 C 13.398438 0.421875 11.984375 0.140625 10.671875 -0.421875 C 9.359375 -0.992188 8.191406 -1.773438 7.171875 -2.765625 L 7.171875 0 L 3.875 0 L 3.875 -39.078125 L 7.171875 -39.078125 L 7.171875 -18.484375 C 8.191406 -19.472656 9.359375 -20.25 10.671875 -20.8125 C 11.984375 -21.382812 13.398438 -21.671875 14.921875 -21.671875 Z M 14.921875 -2.875 C 16.367188 -2.875 17.675781 -3.21875 18.84375 -3.90625 C 20.019531 -4.59375 20.953125 -5.53125 21.640625 -6.71875 C 22.328125 -7.90625 22.671875 -9.207031 22.671875 -10.625 C 22.671875 -12.070312 22.328125 -13.378906 21.640625 -14.546875 C 20.953125 -15.710938 20.019531 -16.640625 18.84375 -17.328125 C 17.675781 -18.023438 16.367188 -18.375 14.921875 -18.375 C 13.503906 -18.375 12.203125 -18.023438 11.015625 -17.328125 C 9.828125 -16.640625 8.890625 -15.710938 8.203125 -14.546875 C 7.515625 -13.378906 7.171875 -12.070312 7.171875 -10.625 C 7.171875 -9.207031 7.515625 -7.90625 8.203125 -6.71875 C 8.890625 -5.53125 9.828125 -4.59375 11.015625 -3.90625 C 12.203125 -3.21875 13.503906 -2.875 14.921875 -2.875 Z M 14.921875 -2.875 "/></g></g></g><g fill="#ffffff" fill-opacity="1"><g transform="translate(247.031424, 71.393608)"><g><path d="M 13.4375 0.421875 C 11.414062 0.421875 9.5625 -0.0703125 7.875 -1.0625 C 6.195312 -2.050781 4.863281 -3.382812 3.875 -5.0625 C 2.882812 -6.75 2.390625 -8.601562 2.390625 -10.625 C 2.390625 -12.675781 2.882812 -14.53125 3.875 -16.1875 C 4.863281 -17.851562 6.195312 -19.179688 7.875 -20.171875 C 9.5625 -21.171875 11.414062 -21.671875 13.4375 -21.671875 C 15.488281 -21.671875 17.34375 -21.171875 19 -20.171875 C 20.664062 -19.179688 21.992188 -17.851562 22.984375 -16.1875 C 23.984375 -14.53125 24.484375 -12.675781 24.484375 -10.625 C 24.484375 -8.601562 23.984375 -6.75 22.984375 -5.0625 C 21.992188 -3.382812 20.664062 -2.050781 19 -1.0625 C 17.34375 -0.0703125 15.488281 0.421875 13.4375 0.421875 Z M 13.4375 -2.875 C 14.851562 -2.875 16.144531 -3.21875 17.3125 -3.90625 C 18.476562 -4.59375 19.414062 -5.53125 20.125 -6.71875 C 20.832031 -7.90625 21.1875 -9.207031 21.1875 -10.625 C 21.1875 -12.070312 20.832031 -13.378906 20.125 -14.546875 C 19.414062 -15.710938 18.476562 -16.640625 17.3125 -17.328125 C 16.144531 -18.023438 14.851562 -18.375 13.4375 -18.375 C 12.019531 -18.375 10.71875 -18.023438 9.53125 -17.328125 C 8.34375 -16.640625 7.40625 -15.710938 6.71875 -14.546875 C 6.03125 -13.378906 5.6875 -12.070312 5.6875 -10.625 C 5.6875 -9.207031 6.03125 -7.90625 6.71875 -6.71875 C 7.40625 -5.53125 8.34375 -4.59375 9.53125 -3.90625 C 10.71875 -3.21875 12.019531 -2.875 13.4375 -2.875 Z M 13.4375 -2.875 "/></g></g></g><g fill="#ffffff" fill-opacity="1"><g transform="translate(271.563351, 71.393608)"><g><path d="M 3.875 0 L 3.875 -39.078125 L 7.171875 -39.078125 L 7.171875 0 Z M 3.875 0 "/></g></g></g><g fill="#ffffff" fill-opacity="1"><g transform="translate(280.271427, 71.393608)"><g><path d="M 26.65625 -2.765625 L 27.984375 -2.765625 L 27.984375 0 C 27.523438 0.28125 26.992188 0.421875 26.390625 0.421875 C 25.148438 0.421875 24.113281 0.0859375 23.28125 -0.578125 C 22.445312 -1.253906 21.851562 -2.140625 21.5 -3.234375 C 20.507812 -2.140625 19.316406 -1.253906 17.921875 -0.578125 C 16.523438 0.0859375 15.03125 0.421875 13.4375 0.421875 C 11.414062 0.421875 9.5625 -0.0703125 7.875 -1.0625 C 6.195312 -2.050781 4.863281 -3.382812 3.875 -5.0625 C 2.882812 -6.75 2.390625 -8.601562 2.390625 -10.625 C 2.390625 -12.675781 2.882812 -14.53125 3.875 -16.1875 C 4.863281 -17.851562 6.195312 -19.179688 7.875 -20.171875 C 9.5625 -21.171875 11.414062 -21.671875 13.4375 -21.671875 C 14.957031 -21.671875 16.378906 -21.382812 17.703125 -20.8125 C 19.035156 -20.25 20.195312 -19.472656 21.1875 -18.484375 L 21.1875 -21.234375 L 24.484375 -21.234375 L 24.484375 -5.515625 C 24.484375 -4.523438 24.703125 -3.816406 25.140625 -3.390625 C 25.585938 -2.972656 26.09375 -2.765625 26.65625 -2.765625 Z M 13.4375 -2.875 C 14.851562 -2.875 16.144531 -3.21875 17.3125 -3.90625 C 18.476562 -4.59375 19.414062 -5.53125 20.125 -6.71875 C 20.832031 -7.90625 21.1875 -9.207031 21.1875 -10.625 C 21.1875 -12.070312 20.832031 -13.378906 20.125 -14.546875 C 19.414062 -15.710938 18.476562 -16.640625 17.3125 -17.328125 C 16.144531 -18.023438 14.851562 -18.375 13.4375 -18.375 C 12.019531 -18.375 10.71875 -18.023438 9.53125 -17.328125 C 8.34375 -16.640625 7.40625 -15.710938 6.71875 -14.546875 C 6.03125 -13.378906 5.6875 -12.070312 5.6875 -10.625 C 5.6875 -9.207031 6.03125 -7.90625 6.71875 -6.71875 C 7.40625 -5.53125 8.34375 -4.59375 9.53125 -3.90625 C 10.71875 -3.21875 12.019531 -2.875 13.4375 -2.875 Z M 13.4375 -2.875 "/></g></g></g><g fill="#ffffff" fill-opacity="1"><g transform="translate(100.161271, 89.01648)"><g><path d="M 7.109375 0 L 6.3125 -2.28125 L 1.953125 -2.28125 L 1.140625 0 L 0 0 L 3.546875 -9.8125 L 4.703125 -9.8125 L 8.25 0 Z M 2.28125 -3.28125 L 5.96875 -3.28125 L 4.140625 -8.5625 Z M 2.28125 -3.28125 "/></g></g></g><g fill="#ffffff" fill-opacity="1"><g transform="translate(108.661433, 89.01648)"><g><path d="M 4.703125 -9.8125 C 5.210938 -9.8125 5.671875 -9.6875 6.078125 -9.4375 C 6.492188 -9.195312 6.820312 -8.867188 7.0625 -8.453125 C 7.3125 -8.035156 7.4375 -7.578125 7.4375 -7.078125 C 7.4375 -6.578125 7.3125 -6.117188 7.0625 -5.703125 C 6.820312 -5.285156 6.492188 -4.957031 6.078125 -4.71875 C 5.671875 -4.476562 5.210938 -4.359375 4.703125 -4.359375 L 2.234375 -4.359375 L 2.234375 0 L 1.1875 0 L 1.1875 -9.8125 Z M 4.609375 -5.359375 C 5.097656 -5.359375 5.515625 -5.507812 5.859375 -5.8125 C 6.210938 -6.113281 6.390625 -6.53125 6.390625 -7.0625 C 6.390625 -7.582031 6.210938 -8 5.859375 -8.3125 C 5.515625 -8.632812 5.097656 -8.796875 4.609375 -8.796875 L 2.234375 -8.796875 L 2.234375 -5.359375 Z M 4.609375 -5.359375 "/></g></g></g><g fill="#ffffff" fill-opacity="1"><g transform="translate(116.622388, 89.01648)"><g><path d="M 5.171875 -4.484375 L 8.0625 0 L 6.859375 0 L 4.09375 -4.4375 L 2.234375 -4.4375 L 2.234375 0 L 1.1875 0 L 1.1875 -9.8125 L 4.703125 -9.8125 C 5.203125 -9.8125 5.660156 -9.6875 6.078125 -9.4375 C 6.492188 -9.195312 6.820312 -8.867188 7.0625 -8.453125 C 7.3125 -8.035156 7.4375 -7.570312 7.4375 -7.0625 C 7.4375 -6.625 7.332031 -6.21875 7.125 -5.84375 C 6.925781 -5.476562 6.65625 -5.175781 6.3125 -4.9375 C 5.976562 -4.695312 5.597656 -4.546875 5.171875 -4.484375 Z M 2.234375 -5.421875 L 4.640625 -5.421875 C 5.140625 -5.421875 5.554688 -5.570312 5.890625 -5.875 C 6.222656 -6.1875 6.390625 -6.59375 6.390625 -7.09375 C 6.390625 -7.582031 6.21875 -7.984375 5.875 -8.296875 C 5.539062 -8.609375 5.128906 -8.765625 4.640625 -8.765625 L 2.234375 -8.765625 Z M 2.234375 -5.421875 "/></g></g></g><g fill="#ffffff" fill-opacity="1"><g transform="translate(125.073527, 89.01648)"><g><path d="M 6.640625 -8.796875 L 2.328125 -8.796875 L 2.328125 -5.40625 L 6.078125 -5.40625 L 6.078125 -4.390625 L 2.328125 -4.390625 L 2.328125 -1.015625 L 6.640625 -1.015625 L 6.640625 0 L 1.28125 0 L 1.28125 -9.8125 L 6.640625 -9.8125 Z M 6.640625 -8.796875 "/></g></g></g><g fill="#ffffff" fill-opacity="1"><g transform="translate(132.936447, 89.01648)"><g><path d="M 8.234375 -9.8125 L 9.265625 -9.8125 L 9.265625 0 L 8.28125 0 L 2.234375 -8.0625 L 2.234375 0 L 1.1875 0 L 1.1875 -9.8125 L 2.171875 -9.8125 L 8.234375 -1.75 Z M 8.234375 -9.8125 "/></g></g></g><g fill="#ffffff" fill-opacity="1"><g transform="translate(143.642446, 89.01648)"><g><path d="M 1.1875 0 L 1.1875 -9.8125 L 3.875 -9.8125 C 4.550781 -9.8125 5.1875 -9.679688 5.78125 -9.421875 C 6.375 -9.171875 6.894531 -8.820312 7.34375 -8.375 C 7.789062 -7.925781 8.140625 -7.40625 8.390625 -6.8125 C 8.648438 -6.21875 8.78125 -5.582031 8.78125 -4.90625 C 8.78125 -4.226562 8.648438 -3.59375 8.390625 -3 C 8.140625 -2.40625 7.789062 -1.882812 7.34375 -1.4375 C 6.894531 -0.988281 6.375 -0.632812 5.78125 -0.375 C 5.1875 -0.125 4.550781 0 3.875 0 Z M 2.21875 -1.046875 L 3.859375 -1.046875 C 4.585938 -1.046875 5.242188 -1.210938 5.828125 -1.546875 C 6.410156 -1.890625 6.875 -2.351562 7.21875 -2.9375 C 7.5625 -3.519531 7.734375 -4.175781 7.734375 -4.90625 C 7.734375 -5.644531 7.5625 -6.300781 7.21875 -6.875 C 6.875 -7.457031 6.410156 -7.914062 5.828125 -8.25 C 5.242188 -8.59375 4.585938 -8.765625 3.859375 -8.765625 L 2.21875 -8.765625 Z M 2.21875 -1.046875 "/></g></g></g><g fill="#ffffff" fill-opacity="1"><g transform="translate(153.466114, 89.01648)"><g><path d="M 1.28125 0 L 1.28125 -9.8125 L 2.328125 -9.8125 L 2.328125 0 Z M 1.28125 0 "/></g></g></g><g fill="#ffffff" fill-opacity="1"><g transform="translate(157.29317, 89.01648)"><g><path d="M 2.46875 -1.046875 L 8.03125 -1.046875 L 8.03125 0 L 0.609375 0 L 5.984375 -8.765625 L 1 -8.765625 L 1 -9.8125 L 7.828125 -9.8125 Z M 2.46875 -1.046875 "/></g></g></g><g fill="#ffffff" fill-opacity="1"><g transform="translate(166.169142, 89.01648)"><g><path d="M 7.109375 0 L 6.3125 -2.28125 L 1.953125 -2.28125 L 1.140625 0 L 0 0 L 3.546875 -9.8125 L 4.703125 -9.8125 L 8.25 0 Z M 2.28125 -3.28125 L 5.96875 -3.28125 L 4.140625 -8.5625 Z M 2.28125 -3.28125 "/></g></g></g><g fill="#ffffff" fill-opacity="1"><g transform="translate(174.669306, 89.01648)"><g><path d="M 5.875 -5.203125 L 10.921875 -5.203125 L 10.921875 -4.90625 C 10.921875 -4.207031 10.789062 -3.554688 10.53125 -2.953125 C 10.269531 -2.347656 9.90625 -1.8125 9.4375 -1.34375 C 8.976562 -0.882812 8.445312 -0.523438 7.84375 -0.265625 C 7.238281 -0.00390625 6.585938 0.125 5.890625 0.125 C 5.191406 0.125 4.535156 -0.00390625 3.921875 -0.265625 C 3.316406 -0.523438 2.785156 -0.882812 2.328125 -1.34375 C 1.867188 -1.8125 1.503906 -2.347656 1.234375 -2.953125 C 0.972656 -3.554688 0.84375 -4.207031 0.84375 -4.90625 C 0.84375 -5.601562 0.972656 -6.253906 1.234375 -6.859375 C 1.503906 -7.460938 1.867188 -7.992188 2.328125 -8.453125 C 2.785156 -8.921875 3.316406 -9.285156 3.921875 -9.546875 C 4.535156 -9.804688 5.191406 -9.9375 5.890625 -9.9375 C 6.828125 -9.9375 7.679688 -9.703125 8.453125 -9.234375 C 9.222656 -8.765625 9.820312 -8.148438 10.25 -7.390625 L 9.34375 -6.875 C 9.007812 -7.488281 8.535156 -7.976562 7.921875 -8.34375 C 7.304688 -8.707031 6.628906 -8.890625 5.890625 -8.890625 C 5.160156 -8.890625 4.488281 -8.710938 3.875 -8.359375 C 3.269531 -8.003906 2.785156 -7.523438 2.421875 -6.921875 C 2.066406 -6.316406 1.890625 -5.644531 1.890625 -4.90625 C 1.890625 -4.164062 2.066406 -3.492188 2.421875 -2.890625 C 2.785156 -2.285156 3.269531 -1.804688 3.875 -1.453125 C 4.488281 -1.097656 5.160156 -0.921875 5.890625 -0.921875 C 6.546875 -0.921875 7.148438 -1.0625 7.703125 -1.34375 C 8.265625 -1.632812 8.726562 -2.023438 9.09375 -2.515625 C 9.46875 -3.015625 9.707031 -3.582031 9.8125 -4.21875 L 5.875 -4.21875 Z M 5.875 -5.203125 "/></g></g></g><g fill="#ffffff" fill-opacity="1"><g transform="translate(186.66613, 89.01648)"><g><path d="M 6.640625 -8.796875 L 2.328125 -8.796875 L 2.328125 -5.40625 L 6.078125 -5.40625 L 6.078125 -4.390625 L 2.328125 -4.390625 L 2.328125 -1.015625 L 6.640625 -1.015625 L 6.640625 0 L 1.28125 0 L 1.28125 -9.8125 L 6.640625 -9.8125 Z M 6.640625 -8.796875 "/></g></g></g><g fill="#ffffff" fill-opacity="1"><g transform="translate(194.529053, 89.01648)"><g><path d="M 9.84375 -9.8125 L 10.9375 -9.8125 L 10.9375 0 L 9.90625 0 L 9.90625 -7.71875 L 6.484375 0 L 5.625 0 L 2.234375 -7.75 L 2.234375 0 L 1.1875 0 L 1.1875 -9.8125 L 2.3125 -9.8125 L 6.0625 -1.265625 Z M 9.84375 -9.8125 "/></g></g></g><g fill="#050259" fill-opacity="1"><g transform="translate(206.903644, 89.01648)"><g/></g></g><g fill="#55d976" fill-opacity="1"><g transform="translate(211.101509, 89.01648)"><g><path d="M 7.109375 0 L 6.3125 -2.28125 L 1.953125 -2.28125 L 1.140625 0 L 0 0 L 3.546875 -9.8125 L 4.703125 -9.8125 L 8.25 0 Z M 2.28125 -3.28125 L 5.96875 -3.28125 L 4.140625 -8.5625 Z M 2.28125 -3.28125 "/></g></g></g><g fill="#55d976" fill-opacity="1"><g transform="translate(219.601671, 89.01648)"><g><path d="M 1.1875 0 L 1.1875 -9.8125 L 3.875 -9.8125 C 4.550781 -9.8125 5.1875 -9.679688 5.78125 -9.421875 C 6.375 -9.171875 6.894531 -8.820312 7.34375 -8.375 C 7.789062 -7.925781 8.140625 -7.40625 8.390625 -6.8125 C 8.648438 -6.21875 8.78125 -5.582031 8.78125 -4.90625 C 8.78125 -4.226562 8.648438 -3.59375 8.390625 -3 C 8.140625 -2.40625 7.789062 -1.882812 7.34375 -1.4375 C 6.894531 -0.988281 6.375 -0.632812 5.78125 -0.375 C 5.1875 -0.125 4.550781 0 3.875 0 Z M 2.21875 -1.046875 L 3.859375 -1.046875 C 4.585938 -1.046875 5.242188 -1.210938 5.828125 -1.546875 C 6.410156 -1.890625 6.875 -2.351562 7.21875 -2.9375 C 7.5625 -3.519531 7.734375 -4.175781 7.734375 -4.90625 C 7.734375 -5.644531 7.5625 -6.300781 7.21875 -6.875 C 6.875 -7.457031 6.410156 -7.914062 5.828125 -8.25 C 5.242188 -8.59375 4.585938 -8.765625 3.859375 -8.765625 L 2.21875 -8.765625 Z M 2.21875 -1.046875 "/></g></g></g><g fill="#55d976" fill-opacity="1"><g transform="translate(229.425337, 89.01648)"><g><path d="M 7.109375 0 L 6.3125 -2.28125 L 1.953125 -2.28125 L 1.140625 0 L 0 0 L 3.546875 -9.8125 L 4.703125 -9.8125 L 8.25 0 Z M 2.28125 -3.28125 L 5.96875 -3.28125 L 4.140625 -8.5625 Z M 2.28125 -3.28125 "/></g></g></g><g fill="#55d976" fill-opacity="1"><g transform="translate(237.925499, 89.01648)"><g><path d="M 4.703125 -9.8125 C 5.210938 -9.8125 5.671875 -9.6875 6.078125 -9.4375 C 6.492188 -9.195312 6.820312 -8.867188 7.0625 -8.453125 C 7.3125 -8.035156 7.4375 -7.578125 7.4375 -7.078125 C 7.4375 -6.578125 7.3125 -6.117188 7.0625 -5.703125 C 6.820312 -5.285156 6.492188 -4.957031 6.078125 -4.71875 C 5.671875 -4.476562 5.210938 -4.359375 4.703125 -4.359375 L 2.234375 -4.359375 L 2.234375 0 L 1.1875 0 L 1.1875 -9.8125 Z M 4.609375 -5.359375 C 5.097656 -5.359375 5.515625 -5.507812 5.859375 -5.8125 C 6.210938 -6.113281 6.390625 -6.53125 6.390625 -7.0625 C 6.390625 -7.582031 6.210938 -8 5.859375 -8.3125 C 5.515625 -8.632812 5.097656 -8.796875 4.609375 -8.796875 L 2.234375 -8.796875 L 2.234375 -5.359375 Z M 4.609375 -5.359375 "/></g></g></g><g fill="#55d976" fill-opacity="1"><g transform="translate(245.886454, 89.01648)"><g><path d="M 6.625 -9.8125 L 6.625 -8.765625 L 3.90625 -8.765625 L 3.90625 0 L 2.859375 0 L 2.859375 -8.765625 L 0.140625 -8.765625 L 0.140625 -9.8125 Z M 6.625 -9.8125 "/></g></g></g><g fill="#55d976" fill-opacity="1"><g transform="translate(252.899712, 89.01648)"><g><path d="M 7.109375 0 L 6.3125 -2.28125 L 1.953125 -2.28125 L 1.140625 0 L 0 0 L 3.546875 -9.8125 L 4.703125 -9.8125 L 8.25 0 Z M 2.28125 -3.28125 L 5.96875 -3.28125 L 4.140625 -8.5625 Z M 2.28125 -3.28125 "/></g></g></g><g fill="#55d976" fill-opacity="1"><g transform="translate(261.399875, 89.01648)"><g><path d="M 6.625 -9.8125 L 6.625 -8.765625 L 3.90625 -8.765625 L 3.90625 0 L 2.859375 0 L 2.859375 -8.765625 L 0.140625 -8.765625 L 0.140625 -9.8125 Z M 6.625 -9.8125 "/></g></g></g><g fill="#55d976" fill-opacity="1"><g transform="translate(268.413136, 89.01648)"><g><path d="M 1.28125 0 L 1.28125 -9.8125 L 2.328125 -9.8125 L 2.328125 0 Z M 1.28125 0 "/></g></g></g><g fill="#55d976" fill-opacity="1"><g transform="translate(272.240192, 89.01648)"><g><path d="M 7.109375 -9.8125 L 8.25 -9.8125 L 4.703125 0 L 3.546875 0 L 0 -9.8125 L 1.15625 -9.8125 L 4.140625 -1.34375 Z M 7.109375 -9.8125 "/></g></g></g><g fill="#55d976" fill-opacity="1"><g transform="translate(280.740355, 89.01648)"><g><path d="M 7.109375 0 L 6.3125 -2.28125 L 1.953125 -2.28125 L 1.140625 0 L 0 0 L 3.546875 -9.8125 L 4.703125 -9.8125 L 8.25 0 Z M 2.28125 -3.28125 L 5.96875 -3.28125 L 4.140625 -8.5625 Z M 2.28125 -3.28125 "/></g></g></g><g clip-path="url(#cb3f5e0ef2)"><path fill="#55d976" d="M 33.851562 38.9375 C 31.464844 40.3125 30.628906 42.636719 30.351562 45.324219 L 16.984375 37.605469 L 11.492188 40.769531 L 11.492188 44.148438 L 30.210938 54.949219 L 30.210938 72.652344 C 30.210938 76.3125 33.035156 78.421875 36.257812 80.332031 L 57.621094 92.664062 C 60.785156 94.476562 64.027344 93.082031 67.289062 91.253906 L 88.652344 78.917969 C 91.773438 77.089844 92.191406 73.589844 92.230469 69.847656 L 92.230469 54.949219 L 116.660156 40.847656 C 122.964844 37.207031 124.59375 35.714844 116.660156 31.140625 L 66.851562 2.398438 C 61.5 -0.703125 60.585938 -0.484375 55.09375 2.675781 L 5.785156 31.140625 C -2.152344 35.714844 -0.5 37.207031 5.785156 40.847656 L 5.785156 54.253906 C 2.921875 55.410156 2.464844 59.308594 5.007812 61.097656 C 4.671875 61.554688 4.453125 62.132812 4.453125 62.769531 L 4.453125 75.796875 L 10.023438 75.796875 L 10.023438 62.769531 C 10.023438 62.152344 9.824219 61.574219 9.464844 61.097656 C 11.773438 59.484375 11.710938 56.183594 9.304688 54.574219 L 8.6875 54.253906 L 8.6875 39.15625 L 57.402344 11.03125 C 61.859375 8.445312 61.242188 8.863281 67.03125 12.203125 L 67.03125 26.488281 L 64.820312 25.214844 C 61.660156 23.402344 58.417969 24.796875 55.15625 26.625 L 33.832031 38.9375 Z M 92.191406 26.726562 L 104.605469 33.886719 C 107.488281 35.558594 108.582031 35.777344 106.972656 36.710938 L 92.230469 45.222656 L 92.191406 26.707031 Z M 83.816406 36.195312 C 90.0625 39.792969 90.023438 40.132812 83.816406 36.195312 Z M 38.625 66.746094 L 38.625 51.171875 C 38.644531 46.753906 39.699219 45.324219 43.378906 43.15625 L 56.449219 35.617188 C 60.167969 33.488281 61.9375 33.308594 65.757812 35.496094 L 75.402344 41.066406 L 75.402344 17.078125 L 83.816406 21.929688 L 83.816406 66.527344 C 83.796875 70.804688 83.082031 72.433594 79.261719 74.664062 L 65.777344 82.460938 L 61.222656 85.085938 L 56.46875 82.339844 L 43.398438 74.800781 C 39.699219 72.652344 38.644531 71.203125 38.644531 66.785156 Z M 38.625 66.746094 " fill-opacity="1" fill-rule="evenodd"/></g><path fill="#ffffff" d="M 57.363281 44.765625 L 48.691406 49.777344 C 47.21875 50.632812 47.039062 52.265625 47.019531 53.996094 L 47.019531 65.195312 C 47.019531 66.886719 48.351562 67.859375 49.84375 68.753906 L 50.242188 68.992188 L 59.53125 74.363281 L 61.203125 75.320312 L 73.734375 68.078125 C 75.183594 67.242188 75.382812 65.613281 75.402344 63.882812 L 75.402344 50.734375 L 62.871094 43.511719 L 61.203125 42.558594 L 57.34375 44.785156 Z M 57.363281 44.765625 " fill-opacity="1" fill-rule="evenodd"/><g clip-path="url(#8b5a309985)"><path fill="#55d976" d="M 84.222656 23.316406 L 90.878906 23.316406 L 90.878906 60.699219 L 84.222656 60.699219 Z M 84.222656 23.316406 " fill-opacity="1" fill-rule="nonzero"/></g></svg>