<svg xmlns="http://www.w3.org/2000/svg" xmlns:xlink="http://www.w3.org/1999/xlink" width="218" zoomAndPan="magnify" viewBox="0 0 163.5 52.499999" height="70" preserveAspectRatio="xMidYMid meet" version="1.0"><defs><clipPath id="d0893d20c5"><path d="M 0.523438 0 L 162.480469 0 L 162.480469 52.003906 L 0.523438 52.003906 Z M 0.523438 0 " clip-rule="nonzero"/></clipPath><clipPath id="b15852c7c8"><path d="M 47.753906 0 L 115.359375 0 L 115.359375 52 L 47.753906 52 Z M 47.753906 0 " clip-rule="nonzero"/></clipPath><clipPath id="6d9b99048c"><path d="M 94.46875 9.292969 L 97.761719 9.292969 L 97.761719 32.21875 L 94.46875 32.21875 Z M 94.46875 9.292969 " clip-rule="nonzero"/></clipPath></defs><g clip-path="url(#d0893d20c5)"><path fill="#ffffff" d="M 0.523438 0 L 162.480469 0 L 162.480469 52.003906 L 0.523438 52.003906 Z M 0.523438 0 " fill-opacity="1" fill-rule="nonzero"/><path fill="#ffffff" d="M 0.523438 0 L 162.480469 0 L 162.480469 52.003906 L 0.523438 52.003906 Z M 0.523438 0 " fill-opacity="1" fill-rule="nonzero"/></g><g clip-path="url(#b15852c7c8)"><path fill="#55d976" d="M 66.304688 21.617188 C 64.980469 22.378906 64.515625 23.671875 64.363281 25.164062 L 56.941406 20.878906 L 53.894531 22.632812 L 53.894531 24.511719 L 64.285156 30.507812 L 64.285156 40.335938 C 64.285156 42.367188 65.851562 43.539062 67.640625 44.597656 L 79.5 51.445312 C 81.257812 52.449219 83.054688 51.675781 84.867188 50.660156 L 96.726562 43.8125 C 98.460938 42.796875 98.691406 40.855469 98.714844 38.777344 L 98.714844 30.507812 L 112.273438 22.679688 C 115.773438 20.65625 116.679688 19.828125 112.273438 17.289062 L 84.625 1.335938 C 81.652344 -0.386719 81.144531 -0.265625 78.097656 1.488281 L 50.726562 17.289062 C 46.320312 19.828125 47.234375 20.65625 50.726562 22.679688 L 50.726562 30.121094 C 49.136719 30.761719 48.882812 32.925781 50.292969 33.917969 C 50.105469 34.171875 49.984375 34.492188 49.984375 34.847656 L 49.984375 42.078125 L 53.078125 42.078125 L 53.078125 34.847656 C 53.078125 34.503906 52.964844 34.183594 52.769531 33.917969 C 54.046875 33.023438 54.015625 31.191406 52.679688 30.296875 L 52.335938 30.121094 L 52.335938 21.738281 L 79.378906 6.125 C 81.851562 4.691406 81.511719 4.921875 84.722656 6.777344 L 84.722656 14.707031 L 83.5 14 C 81.742188 12.996094 79.941406 13.769531 78.132812 14.785156 L 66.292969 21.617188 Z M 98.691406 14.839844 L 105.582031 18.8125 C 107.183594 19.742188 107.792969 19.863281 106.898438 20.382812 L 98.714844 25.109375 L 98.691406 14.828125 Z M 94.042969 20.09375 C 97.511719 22.09375 97.488281 22.28125 94.042969 20.09375 Z M 68.957031 37.054688 L 68.957031 28.410156 C 68.964844 25.957031 69.550781 25.164062 71.59375 23.960938 L 78.847656 19.773438 C 80.914062 18.59375 81.898438 18.492188 84.015625 19.707031 L 89.371094 22.800781 L 89.371094 9.484375 L 94.042969 12.175781 L 94.042969 36.933594 C 94.03125 39.308594 93.636719 40.214844 91.515625 41.449219 L 84.027344 45.777344 L 81.5 47.238281 L 78.859375 45.710938 L 71.605469 41.527344 C 69.550781 40.335938 68.964844 39.527344 68.964844 37.078125 Z M 68.957031 37.054688 " fill-opacity="1" fill-rule="evenodd"/></g><path fill="#050259" d="M 79.359375 24.855469 L 74.542969 27.636719 C 73.726562 28.113281 73.625 29.015625 73.617188 29.976562 L 73.617188 36.195312 C 73.617188 37.132812 74.355469 37.675781 75.183594 38.171875 L 75.40625 38.304688 L 80.5625 41.285156 L 81.488281 41.816406 L 88.445312 37.796875 C 89.25 37.332031 89.363281 36.425781 89.371094 35.464844 L 89.371094 28.167969 L 82.417969 24.160156 L 81.488281 23.628906 L 79.347656 24.863281 Z M 79.359375 24.855469 " fill-opacity="1" fill-rule="evenodd"/><g clip-path="url(#6d9b99048c)"><path fill="#55d976" d="M 94.46875 9.292969 L 97.761719 9.292969 L 97.761719 32.21875 L 94.46875 32.21875 Z M 94.46875 9.292969 " fill-opacity="1" fill-rule="nonzero"/></g></svg>